<svg xmlns="http://www.w3.org/2000/svg" width="1200" height="550" viewBox="0 0 1200 550" role="img" aria-labelledby="title desc">
  <title id="title">Angular engineering profile for afterinit</title>
  <desc id="desc">Think clearly. Build precisely. Java backend engineering. Last public push: afinit_blog_page / master, 2 days ago. 9 public commits in seven days. Updated 10.10 / 20:30 UTC+8.</desc>
  <defs>
    <clipPath id="upper-cut"><path d="M 764 156 L 808 112 H 1080 V 288 L 1036 332 H 922 V 280 H 1012 L 1028 264 V 164 H 836 L 816 184 V 280 H 764 Z" /></clipPath>
    <clipPath id="lower-cut"><path d="M 838 208 H 890 V 340 H 1008 L 956 392 H 838 Z" /></clipPath>
    <style>
      .sans { font-family: Arial, Helvetica, sans-serif; }
      .mono { font-family: Consolas, 'Liberation Mono', monospace; }
      .title { fill: #E7E5DF; font-size: 62px; font-weight: 400; letter-spacing: -2.4px; }
      .label { fill: #989995; font-size: 11px; letter-spacing: 1.3px; }
      .data { fill: #E7E5DF; font-size: 17px; }
      .muted { fill: #989995; font-size: 13px; }
      .foot { fill: #70726F; font-size: 10px; letter-spacing: 0.45px; }
      .scan { animation: scan 12s ease-in-out infinite; }
      .trace { animation: trace 14s linear infinite; }
      .transfer { animation: transfer 8s ease-in-out infinite; }
      @keyframes scan {
        0%, 16% { transform: translateY(0); opacity: 0; }
        25% { opacity: 0.55; }
        70% { opacity: 0.55; }
        84%, 100% { transform: translateY(250px); opacity: 0; }
      }
      @keyframes trace {
        0%, 10% { stroke-dashoffset: 0; opacity: 0; }
        20%, 80% { opacity: 0.8; }
        90%, 100% { stroke-dashoffset: -1024; opacity: 0; }
      }
      @keyframes transfer {
        0%, 12% { transform: translateX(0); opacity: 0; }
        20%, 72% { opacity: 0.6; }
        88%, 100% { transform: translateX(1072px); opacity: 0; }
      }
      @media (prefers-reduced-motion: reduce) {
        .scan, .trace, .transfer { animation: none; opacity: 0; }
      }
    </style>
  </defs>

  <rect width="1200" height="550" fill="#0B0C0D" />

  <!-- Typography and negative space define the composition. -->
  <text class="sans label" x="72" y="76">JAVA / BACKEND ENGINEERING</text>
  <text class="sans title" x="68" y="181">Think clearly.</text>
  <text class="sans title" x="68" y="252">Build precisely.</text>
  <text class="sans muted" x="72" y="303">Architecture. Code. Iteration.</text>

  <!-- Two interlocking cut components, without curves or surface effects. -->
  <g transform="translate(0 -24)">
  <path d="M 764 156 L 808 112 H 1080 V 288 L 1036 332 H 922 V 280 H 1012 L 1028 264 V 164 H 836 L 816 184 V 280 H 764 Z" fill="#242625" transform="translate(12 12)" />
  <path d="M 838 208 H 890 V 340 H 1008 L 956 392 H 838 Z" fill="#191B1A" transform="translate(12 12)" />
  <path d="M 764 156 L 808 112 H 1080 V 288 L 1036 332 H 922 V 280 H 1012 L 1028 264 V 164 H 836 L 816 184 V 280 H 764 Z" fill="#E7E5DF" />
  <path d="M 838 208 H 890 V 340 H 1008 L 956 392 H 838 Z" fill="#6D706C" />
  <path d="M 838 340 H 890 L 856 374 H 838 Z" fill="#A89B7E" />

  <!-- Light traverses a single straight axis; a small trace follows hard edges. -->
  <g clip-path="url(#upper-cut)">
    <rect class="scan" x="750" y="104" width="340" height="3" fill="#0B0C0D" opacity="0" />
  </g>
  <g clip-path="url(#lower-cut)">
    <rect class="scan" x="832" y="104" width="188" height="3" fill="#E7E5DF" opacity="0" />
  </g>
  <path class="trace" d="M 792 252 V 168 L 822 138 H 1054 V 276 L 1024 306 H 940"
        fill="none" stroke="#0B0C0D" stroke-width="2"
        stroke-linejoin="miter" stroke-linecap="butt" pathLength="1024"
        stroke-dasharray="42 982" opacity="0" />
  </g>

  <!-- One compact row carries the actual public activity. -->
  <line x1="72" y1="395" x2="1128" y2="395" stroke="#303230" />
  <rect class="transfer" x="72" y="394" width="24" height="2" fill="#E7E5DF" opacity="0" />
  <text class="sans label" x="72" y="425">LAST PUSH</text>
  <text class="sans data" x="72" y="452">afinit_blog_page</text>
  <text class="mono muted" x="374" y="451">/ master</text>
  <text class="sans muted" x="622" y="451">2 days ago</text>

  <text class="sans label" x="1106" y="425" text-anchor="end">LAST 7 DAYS</text>
  <rect x="920" y="447" width="18" height="3" fill="#303230"><title>2026-10-04 / 0 public commits</title></rect>
      <rect x="948" y="436" width="18" height="14" fill="#E7E5DF"><title>2026-10-05 / 2 public commits</title></rect>
      <rect x="976" y="447" width="18" height="3" fill="#303230"><title>2026-10-06 / 0 public commits</title></rect>
      <rect x="1004" y="447" width="18" height="3" fill="#303230"><title>2026-10-07 / 0 public commits</title></rect>
      <rect x="1032" y="424" width="18" height="26" fill="#E7E5DF"><title>2026-10-08 / 5 public commits</title></rect>
      <rect x="1060" y="447" width="18" height="3" fill="#303230"><title>2026-10-09 / 0 public commits</title></rect>
      <rect x="1088" y="436" width="18" height="14" fill="#E7E5DF"><title>2026-10-10 / 2 public commits</title></rect>
  <text class="sans muted" x="1106" y="474" text-anchor="end">9 public commits</text>

  <text class="sans foot" x="72" y="514">afterinit / public GitHub activity</text>
  <text class="mono foot" x="1128" y="514" text-anchor="end">updated 10.10 / 20:30 UTC+8</text>
</svg>
