<svg xmlns="http://www.w3.org/2000/svg" width="1200" height="900" viewBox="0 0 1200 900" role="img" aria-labelledby="title desc">
  <title id="title">afterinit developer telemetry</title>
  <desc id="desc">Generated from public GitHub activity by the repository workflow.</desc>
  <defs>
    <pattern id="grid" width="24" height="24" patternUnits="userSpaceOnUse">
      <path d="M 24 0 L 0 0 0 24" fill="none" stroke="#141414" stroke-width="1" opacity="0.5" />
    </pattern>
    <style>
      .mono { font-family: 'IBM Plex Mono', 'SFMono-Regular', Consolas, 'Liberation Mono', monospace; }
      .label { fill: #888888; font-size: 12px; letter-spacing: 2px; }
      .micro { fill: #555555; font-size: 10px; letter-spacing: 1.4px; }
      .value { fill: #FFFFFF; font-size: 15px; }
      .soft { fill: #888888; font-size: 13px; }
      .cursor { animation: blink 1.25s steps(1, end) infinite; }
      @keyframes blink { 0%, 47% { opacity: 1; } 48%, 100% { opacity: 0; } }
      @media (prefers-reduced-motion: reduce) { .cursor, .scan { animation: none; } }
    </style>
  </defs>
  <rect x="0.5" y="0.5" width="1199" height="899" fill="#050505" stroke="#333333" />
  <rect x="1" y="1" width="1198" height="898" fill="url(#grid)" />
<text class="mono" x="48" y="67" fill="#FFFFFF" font-size="46" font-weight="700" letter-spacing="4">AFTERINIT<tspan class="cursor" fill="#A8BAC8">_</tspan></text>
  <text class="mono label" x="50" y="99" >JAVA BACKEND / COMPUTER SCIENCE</text>
  <text class="mono soft" x="50" y="122" >Building backend systems and things worth using.</text>
  <text class="mono micro" x="1150" y="39" text-anchor="end">LOCAL TIME // LAST SYNC</text>
  <text class="mono value" x="1150" y="64" text-anchor="end">2026 / 09 / 28   11:35:31  UTC+8</text>
  <rect x="1088" y="91" width="9" height="9" fill="#888888" />
  <text class="mono label" x="1150" y="100" text-anchor="end">GITHUB ACTIVITY: IDLE</text>
  <line x1="48" y1="141" x2="1152" y2="141" stroke="#333333" opacity="1" />
  <line x1="774" y1="141" x2="774" y2="852" stroke="#333333" opacity="0.9" />
  <text class="mono label" x="48" y="177" >01 / LIVE DEVELOPER STATUS</text>
  <text class="mono micro" x="48" y="219" >STATUS</text>
  <text class="mono label" x="244" y="219" fill="#888888">IDLE</text>
  <text class="mono micro" x="48" y="250" >LAST PUSH</text>
  <text class="mono value" x="244" y="250" fill="#FFFFFF">2026-09-27 21:39</text>
  <text class="mono micro" x="48" y="281" >ACTIVE REPOSITORY</text>
  <text class="mono value" x="244" y="281" fill="#FFFFFF">afinit_blog_page</text>
  <text class="mono micro" x="48" y="312" >CURRENT BRANCH</text>
  <text class="mono value" x="244" y="312" fill="#FFFFFF">master</text>
  <text class="mono micro" x="48" y="343" >LAST ACTIVITY</text>
  <text class="mono value" x="244" y="343" fill="#FFFFFF">13 HRS AGO</text>
  <line x1="48" y1="389" x2="734" y2="389" stroke="#333333" opacity="1" />
  <text class="mono label" x="48" y="421" >02 / LAST PUSH</text>
  <text class="mono" x="48" y="466" fill="#FFFFFF" font-size="28" letter-spacing="1">2026.09.27  /  21:39:04</text>
  <text class="mono value" x="48" y="500" >afinit_blog_page</text>
  <text class="mono soft" x="405" y="500" >BRANCH / master</text>
  <text class="mono soft" x="48" y="535" >3.2.4修复了手机端第一次切换深浅卡顿的bug</text>
  <line x1="48" y1="555" x2="734" y2="555" stroke="#333333" opacity="0.7" />
  <text class="mono label" x="734" y="579" text-anchor="end">13 HRS AGO</text>
  <line x1="48" y1="612" x2="734" y2="612" stroke="#333333" opacity="1" />
  <text class="mono label" x="48" y="644" >03 / ACTIVITY STREAM</text>
  <text class="mono micro" x="48" y="682" >09-27 21:39</text>
  <text class="mono label" x="175" y="682" >PUSH</text>
  <text class="mono soft" x="316" y="682" >afinit_blog_page/master</text>
  <text class="mono micro" x="48" y="715" >09-26 18:43</text>
  <text class="mono label" x="175" y="715" >PUSH</text>
  <text class="mono soft" x="316" y="715" >afinit_blog_page/master</text>
  <text class="mono micro" x="48" y="748" >09-26 18:35</text>
  <text class="mono label" x="175" y="748" >PUSH</text>
  <text class="mono soft" x="316" y="748" >afinit_blog_page/master</text>
  <text class="mono micro" x="48" y="781" >09-25 21:15</text>
  <text class="mono label" x="175" y="781" >PUSH</text>
  <text class="mono soft" x="316" y="781" >afinit_blog_page/master</text>
  <text class="mono micro" x="48" y="814" >09-25 19:10</text>
  <text class="mono label" x="175" y="814" >PUSH</text>
  <text class="mono soft" x="316" y="814" >afinit_blog_page/master</text>
  <text class="mono label" x="812" y="177" >04 / WEEKLY DEV PULSE</text>
  <text class="mono micro" x="812" y="218" >COMMITS</text>
  <text class="mono" x="812" y="250" fill="#FFFFFF" font-size="25">9</text>
  <text class="mono micro" x="990" y="218" >PUSHES</text>
  <text class="mono" x="990" y="250" fill="#FFFFFF" font-size="25">9</text>
  <text class="mono micro" x="812" y="284" >ACTIVE REPOS</text>
  <text class="mono" x="812" y="316" fill="#FFFFFF" font-size="25">2</text>
  <text class="mono micro" x="990" y="284" >ACTIVE DAYS</text>
  <text class="mono" x="990" y="316" fill="#FFFFFF" font-size="25">4 / 7</text>
  <text class="mono micro" x="812" y="348" >MOST ACTIVE</text>
  <text class="mono value" x="1150" y="348" text-anchor="end">afinit_blog_page</text>
  <line x1="812" y1="377" x2="1152" y2="377" stroke="#333333" opacity="1" />
  <text class="mono label" x="812" y="409" >05 / ACTIVE NODES</text>
  <text class="mono micro" x="812" y="451" >01</text>
  <text class="mono value" x="854" y="451" >afinit_blog_page</text>
  <text class="mono micro" x="854" y="474" >Vue</text>
  <text class="mono micro" x="1152" y="474" text-anchor="end">13 HRS AGO</text>
  <text class="mono micro" x="812" y="530" >02</text>
  <text class="mono value" x="854" y="530" >afinit_blog</text>
  <text class="mono micro" x="854" y="553" >Java</text>
  <text class="mono micro" x="1152" y="553" text-anchor="end">2 DAYS AGO</text>
  <text class="mono micro" x="812" y="609" >03</text>
  <text class="mono value" x="854" y="609" >jwt-login</text>
  <text class="mono micro" x="854" y="632" >HTML</text>
  <text class="mono micro" x="1152" y="632" text-anchor="end">90 DAYS AGO</text>
  <line x1="812" y1="664" x2="1152" y2="664" stroke="#333333" opacity="1" />
  <text class="mono label" x="812" y="696" >06 / CURRENT FOCUS</text>
  <text class="mono micro" x="812" y="733" >MODE</text>
  <text class="mono value" x="1152" y="733" text-anchor="end">BUILDING</text>
  <text class="mono micro" x="812" y="766" >PROJECT</text>
  <text class="mono value" x="1152" y="766" text-anchor="end">Code Generator</text>
  <text class="mono soft" x="812" y="803" >Backend Architecture / Spring Boot</text>
  <text class="mono soft" x="812" y="827" >Distributed Cache / Developer Tools</text>
  <line x1="48" y1="852" x2="1152" y2="852" stroke="#333333" opacity="1" />
  <text class="mono micro" x="48" y="879" >SOURCE / PUBLIC GITHUB EVENTS API</text>
  <text class="mono micro" x="1152" y="879" text-anchor="end">ACTIVE ≠ LIVE PRESENCE</text>

  <rect class="scan" x="1" y="1" width="1198" height="1" fill="#A8BAC8" opacity="0.11">
    <animate attributeName="y" values="1;898;1" dur="16s" repeatCount="indefinite" />
  </rect>
</svg>
